<svg xmlns="http://www.w3.org/2000/svg" width="64" height="64"><path style="line-height:normal;text-indent:0;text-align:start;text-decoration-line:none;text-decoration-style:solid;text-decoration-color:#000;text-transform:none;block-progression:tb;white-space:normal;isolation:auto;mix-blend-mode:normal;solid-color:#000;solid-opacity:1" d="M 12.933594 0.94921875 C 12.289283 0.94921875 11.800011 1.4095117 11.599609 2.0058594 L 11.599609 2 L 5.4160156 2 C 4.6611802 2 4 2.58475 4 3.34375 L 4 28.65625 C 4 29.41525 4.6610223 30.0005 5.4160156 30 L 25.583984 30 C 26.33882 30 27 29.41525 27 28.65625 L 27 3.34375 C 27 2.58475 26.338807 2 25.583984 2 L 19.400391 2 L 19.400391 2.0058594 C 19.199989 1.4095117 18.710717 0.94921875 18.066406 0.94921875 L 12.933594 0.94921875 z M 12.933594 1.9492188 L 18.066406 1.9492188 C 18.249244 1.9492188 18.5 2.1833813 18.5 2.6132812 L 18.5 2.7597656 L 18.5 2.9042969 L 18.5 4.5078125 L 20 4.5078125 L 20 6 L 11 6 L 11 4.5078125 L 12.5 4.5078125 L 12.5 2.9042969 L 12.5 2.7597656 L 12.5 2.6132812 C 12.5 2.1833813 12.750756 1.9492188 12.933594 1.9492188 z M 5.4160156 3 L 11.5 3 L 11.5 3.5078125 L 10 3.5078125 L 10 4 L 7.25 4 C 6.5773745 4 6 4.54055 6 5.21875 L 6 26.78125 C 6 27.45945 6.5772971 28 7.25 28 L 21.533203 28 L 21.533203 27.996094 A 0.50005 0.50005 0 0 0 21.853516 27.853516 L 24.853516 24.853516 A 0.50005 0.50005 0 0 0 24.996094 24.5625 L 25 24.5625 L 25 5.21875 C 25 4.54055 24.422645 4 23.75 4 L 21 4 L 21 3.5078125 L 19.5 3.5078125 L 19.5 3 L 25.583984 3 C 25.844798 3 26 3.16795 26 3.34375 L 26 28.65625 C 26 28.83225 25.844835 29 25.583984 29 L 5.4160156 29 C 5.1553246 29.0002 5 28.83225 5 28.65625 L 5 3.34375 C 5 3.16785 5.1551647 3 5.4160156 3 z M 7.25 5 L 10 5 L 10 7 L 21 7 L 21 5 L 23.75 5 C 23.908485 5 24 5.10045 24 5.21875 L 24 24 L 22.25 24 C 21.577297 24 21 24.54055 21 25.21875 L 21 27 L 7.25 27 C 7.0916883 27 7 26.89945 7 26.78125 L 7 5.21875 C 7 5.10055 7.091596 5 7.25 5 z M 9 8.0253906 L 9 9.0253906 L 22 9.0253906 L 22 8.0253906 L 9 8.0253906 z M 9 10.025391 L 9 11.025391 L 22 11.025391 L 22 10.025391 L 9 10.025391 z M 9 12.025391 L 9 13.025391 L 22 13.025391 L 22 12.025391 L 9 12.025391 z M 9 14.025391 L 9 15.025391 L 22 15.025391 L 22 14.025391 L 9 14.025391 z M 9 16.025391 L 9 17.025391 L 22 17.025391 L 22 16.025391 L 9 16.025391 z M 9 18.025391 L 9 19.025391 L 22 19.025391 L 22 18.025391 L 9 18.025391 z M 9 20.025391 L 9 21.025391 L 22 21.025391 L 22 20.025391 L 9 20.025391 z M 9 22.025391 L 9 23.025391 L 22 23.025391 L 22 22.025391 L 9 22.025391 z M 9 24.025391 L 9 25.025391 L 15 25.025391 L 15 24.025391 L 9 24.025391 z M 22.25 25 L 23.292969 25 L 22 26.292969 L 22 25.21875 C 22 25.10075 22.09169 25 22.25 25 z " color="#000" enable-background="accumulate" font-family="sans-serif" font-weight="400" overflow="visible"/></svg>